%TF.GenerationSoftware,KiCad,Pcbnew,9.0.7*%
%TF.CreationDate,2026-01-25T00:35:13+11:00*%
%TF.ProjectId,HackPad!,4861636b-5061-4642-912e-6b696361645f,rev?*%
%TF.SameCoordinates,Original*%
%TF.FileFunction,Legend,Bot*%
%TF.FilePolarity,Positive*%
%FSLAX46Y46*%
G04 Gerber Fmt 4.6, Leading zero omitted, Abs format (unit mm)*
G04 Created by KiCad (PCBNEW 9.0.7) date 2026-01-25 00:35:13*
%MOMM*%
%LPD*%
G01*
G04 APERTURE LIST*
G04 Aperture macros list*
%AMRoundRect*
0 Rectangle with rounded corners*
0 $1 Rounding radius*
0 $2 $3 $4 $5 $6 $7 $8 $9 X,Y pos of 4 corners*
0 Add a 4 corners polygon primitive as box body*
4,1,4,$2,$3,$4,$5,$6,$7,$8,$9,$2,$3,0*
0 Add four circle primitives for the rounded corners*
1,1,$1+$1,$2,$3*
1,1,$1+$1,$4,$5*
1,1,$1+$1,$6,$7*
1,1,$1+$1,$8,$9*
0 Add four rect primitives between the rounded corners*
20,1,$1+$1,$2,$3,$4,$5,0*
20,1,$1+$1,$4,$5,$6,$7,0*
20,1,$1+$1,$6,$7,$8,$9,0*
20,1,$1+$1,$8,$9,$2,$3,0*%
G04 Aperture macros list end*
%ADD10C,0.100000*%
%ADD11RoundRect,0.082000X0.718000X-0.328000X0.718000X0.328000X-0.718000X0.328000X-0.718000X-0.328000X0*%
%ADD12R,2.000000X2.000000*%
%ADD13C,2.000000*%
%ADD14R,3.200000X2.000000*%
%ADD15C,1.700000*%
%ADD16C,4.000000*%
%ADD17C,2.200000*%
%ADD18C,1.524000*%
G04 APERTURE END LIST*
D10*
%TO.C,D2*%
X95812500Y-75502500D02*
X95812500Y-74602500D01*
X96712500Y-74602500D01*
X95812500Y-75502500D01*
G36*
X95812500Y-75502500D02*
G01*
X95812500Y-74602500D01*
X96712500Y-74602500D01*
X95812500Y-75502500D01*
G37*
%TO.C,D3*%
X114862500Y-94567500D02*
X114862500Y-93667500D01*
X115762500Y-93667500D01*
X114862500Y-94567500D01*
G36*
X114862500Y-94567500D02*
G01*
X114862500Y-93667500D01*
X115762500Y-93667500D01*
X114862500Y-94567500D01*
G37*
%TO.C,D1*%
X114812500Y-75477500D02*
X114812500Y-74577500D01*
X115712500Y-74577500D01*
X114812500Y-75477500D01*
G36*
X114812500Y-75477500D02*
G01*
X114812500Y-74577500D01*
X115712500Y-74577500D01*
X114812500Y-75477500D01*
G37*
%TO.C,D4*%
X95850000Y-94505000D02*
X95850000Y-93605000D01*
X96750000Y-93605000D01*
X95850000Y-94505000D01*
G36*
X95850000Y-94505000D02*
G01*
X95850000Y-93605000D01*
X96750000Y-93605000D01*
X95850000Y-94505000D01*
G37*
%TD*%
%LPC*%
D11*
%TO.C,D2*%
X102612500Y-77252500D03*
X102612500Y-75752500D03*
X97412500Y-75752500D03*
X97412500Y-77252500D03*
%TD*%
D12*
%TO.C,SW5*%
X132350000Y-90300000D03*
D13*
X132350000Y-95300000D03*
X132350000Y-92800000D03*
D14*
X139850000Y-87200000D03*
X139850000Y-98400000D03*
D13*
X146850000Y-95300000D03*
X146850000Y-90300000D03*
%TD*%
D15*
%TO.C,SW3*%
X113982500Y-71437500D03*
D16*
X119062500Y-71437500D03*
D15*
X124142500Y-71437500D03*
D17*
X121602500Y-66357500D03*
X115252500Y-68897500D03*
%TD*%
D18*
%TO.C,U1*%
X132100000Y-62100000D03*
X132100000Y-64640000D03*
X132100000Y-67180000D03*
X132100000Y-69720000D03*
X132100000Y-72260000D03*
X132100000Y-74800000D03*
X132100000Y-77340000D03*
X147340000Y-77340000D03*
X147340000Y-74800000D03*
X147340000Y-72260000D03*
X147340000Y-69720000D03*
X147340000Y-67180000D03*
X147340000Y-64640000D03*
X147340000Y-62100000D03*
%TD*%
D15*
%TO.C,SW4*%
X113982500Y-90487500D03*
D16*
X119062500Y-90487500D03*
D15*
X124142500Y-90487500D03*
D17*
X121602500Y-85407500D03*
X115252500Y-87947500D03*
%TD*%
D11*
%TO.C,D3*%
X121662500Y-96317500D03*
X121662500Y-94817500D03*
X116462500Y-94817500D03*
X116462500Y-96317500D03*
%TD*%
D15*
%TO.C,SW1*%
X94932500Y-71437500D03*
D16*
X100012500Y-71437500D03*
D15*
X105092500Y-71437500D03*
D17*
X102552500Y-66357500D03*
X96202500Y-68897500D03*
%TD*%
D11*
%TO.C,D1*%
X121612500Y-77227500D03*
X121612500Y-75727500D03*
X116412500Y-75727500D03*
X116412500Y-77227500D03*
%TD*%
D15*
%TO.C,SW2*%
X94932500Y-90487500D03*
D16*
X100012500Y-90487500D03*
D15*
X105092500Y-90487500D03*
D17*
X102552500Y-85407500D03*
X96202500Y-87947500D03*
%TD*%
D11*
%TO.C,D4*%
X102650000Y-96255000D03*
X102650000Y-94755000D03*
X97450000Y-94755000D03*
X97450000Y-96255000D03*
%TD*%
%LPD*%
M02*
