%TF.GenerationSoftware,KiCad,Pcbnew,9.0.7*%
%TF.CreationDate,2026-01-25T00:35:14+11:00*%
%TF.ProjectId,HackPad!,4861636b-5061-4642-912e-6b696361645f,rev?*%
%TF.SameCoordinates,Original*%
%TF.FileFunction,Profile,NP*%
%FSLAX46Y46*%
G04 Gerber Fmt 4.6, Leading zero omitted, Abs format (unit mm)*
G04 Created by KiCad (PCBNEW 9.0.7) date 2026-01-25 00:35:14*
%MOMM*%
%LPD*%
G01*
G04 APERTURE LIST*
%TA.AperFunction,Profile*%
%ADD10C,0.050000*%
%TD*%
%TA.AperFunction,Profile*%
%ADD11C,0.100000*%
%TD*%
G04 APERTURE END LIST*
D10*
X86375000Y-59100000D02*
X155100000Y-59100000D01*
X155100000Y-103675000D01*
X86375000Y-103675000D01*
X86375000Y-59100000D01*
D11*
%TO.C,D2*%
X98312501Y-77205342D02*
X98312501Y-75799658D01*
X99218048Y-75002500D02*
X100806952Y-75002500D01*
X100806952Y-78002499D02*
X99218047Y-78002499D01*
X101712499Y-75799658D02*
X101712499Y-77205342D01*
X98263016Y-75582780D02*
G75*
G02*
X98312501Y-75799658I-450505J-216876D01*
G01*
X98263016Y-75582781D02*
G75*
G02*
X98965789Y-74934201I450514J216880D01*
G01*
X98312501Y-77205343D02*
G75*
G02*
X98263016Y-77422220I-499990J-1D01*
G01*
X98965789Y-78070798D02*
G75*
G02*
X98263017Y-77422220I-252258J431700D01*
G01*
X98965789Y-78070798D02*
G75*
G02*
X99218047Y-78002499I252261J-431710D01*
G01*
X99218048Y-75002500D02*
G75*
G02*
X98965789Y-74934201I2J500009D01*
G01*
X100806953Y-78002500D02*
G75*
G02*
X101059211Y-78070799I-3J-500010D01*
G01*
X101059210Y-74934201D02*
G75*
G02*
X100806952Y-75002499I-252260J431711D01*
G01*
X101059211Y-74934203D02*
G75*
G02*
X101761981Y-75582779I252259J-431697D01*
G01*
X101712499Y-75799657D02*
G75*
G02*
X101761985Y-75582781I499991J-3D01*
G01*
X101761984Y-77422220D02*
G75*
G02*
X101059210Y-78070800I-450514J-216880D01*
G01*
X101761984Y-77422220D02*
G75*
G02*
X101712481Y-77205342I450516J216920D01*
G01*
%TO.C,D3*%
X117362501Y-96270342D02*
X117362501Y-94864658D01*
X118268048Y-94067500D02*
X119856952Y-94067500D01*
X119856952Y-97067499D02*
X118268047Y-97067499D01*
X120762499Y-94864658D02*
X120762499Y-96270342D01*
X117313016Y-94647780D02*
G75*
G02*
X117362501Y-94864658I-450505J-216876D01*
G01*
X117313016Y-94647781D02*
G75*
G02*
X118015789Y-93999201I450514J216880D01*
G01*
X117362501Y-96270343D02*
G75*
G02*
X117313016Y-96487220I-499990J-1D01*
G01*
X118015789Y-97135798D02*
G75*
G02*
X117313017Y-96487220I-252258J431700D01*
G01*
X118015789Y-97135798D02*
G75*
G02*
X118268047Y-97067499I252261J-431710D01*
G01*
X118268048Y-94067500D02*
G75*
G02*
X118015789Y-93999201I2J500009D01*
G01*
X119856953Y-97067500D02*
G75*
G02*
X120109211Y-97135799I-3J-500010D01*
G01*
X120109210Y-93999201D02*
G75*
G02*
X119856952Y-94067499I-252260J431711D01*
G01*
X120109211Y-93999203D02*
G75*
G02*
X120811981Y-94647779I252259J-431697D01*
G01*
X120762499Y-94864657D02*
G75*
G02*
X120811985Y-94647781I499991J-3D01*
G01*
X120811984Y-96487220D02*
G75*
G02*
X120109210Y-97135800I-450514J-216880D01*
G01*
X120811984Y-96487220D02*
G75*
G02*
X120762481Y-96270342I450516J216920D01*
G01*
%TO.C,D1*%
X117312501Y-77180342D02*
X117312501Y-75774658D01*
X118218048Y-74977500D02*
X119806952Y-74977500D01*
X119806952Y-77977499D02*
X118218047Y-77977499D01*
X120712499Y-75774658D02*
X120712499Y-77180342D01*
X117263016Y-75557780D02*
G75*
G02*
X117312501Y-75774658I-450505J-216876D01*
G01*
X117263016Y-75557781D02*
G75*
G02*
X117965789Y-74909201I450514J216880D01*
G01*
X117312501Y-77180343D02*
G75*
G02*
X117263016Y-77397220I-499990J-1D01*
G01*
X117965789Y-78045798D02*
G75*
G02*
X117263017Y-77397220I-252258J431700D01*
G01*
X117965789Y-78045798D02*
G75*
G02*
X118218047Y-77977499I252261J-431710D01*
G01*
X118218048Y-74977500D02*
G75*
G02*
X117965789Y-74909201I2J500009D01*
G01*
X119806953Y-77977500D02*
G75*
G02*
X120059211Y-78045799I-3J-500010D01*
G01*
X120059210Y-74909201D02*
G75*
G02*
X119806952Y-74977499I-252260J431711D01*
G01*
X120059211Y-74909203D02*
G75*
G02*
X120761981Y-75557779I252259J-431697D01*
G01*
X120712499Y-75774657D02*
G75*
G02*
X120761985Y-75557781I499991J-3D01*
G01*
X120761984Y-77397220D02*
G75*
G02*
X120059210Y-78045800I-450514J-216880D01*
G01*
X120761984Y-77397220D02*
G75*
G02*
X120712481Y-77180342I450516J216920D01*
G01*
%TO.C,D4*%
X98350001Y-96207842D02*
X98350001Y-94802158D01*
X99255548Y-94005000D02*
X100844452Y-94005000D01*
X100844452Y-97004999D02*
X99255547Y-97004999D01*
X101749999Y-94802158D02*
X101749999Y-96207842D01*
X98300516Y-94585280D02*
G75*
G02*
X98350001Y-94802158I-450505J-216876D01*
G01*
X98300516Y-94585281D02*
G75*
G02*
X99003289Y-93936701I450514J216880D01*
G01*
X98350001Y-96207843D02*
G75*
G02*
X98300516Y-96424720I-499990J-1D01*
G01*
X99003289Y-97073298D02*
G75*
G02*
X98300517Y-96424720I-252258J431700D01*
G01*
X99003289Y-97073298D02*
G75*
G02*
X99255547Y-97004999I252261J-431710D01*
G01*
X99255548Y-94005000D02*
G75*
G02*
X99003289Y-93936701I2J500009D01*
G01*
X100844453Y-97005000D02*
G75*
G02*
X101096711Y-97073299I-3J-500010D01*
G01*
X101096710Y-93936701D02*
G75*
G02*
X100844452Y-94004999I-252260J431711D01*
G01*
X101096711Y-93936703D02*
G75*
G02*
X101799481Y-94585279I252259J-431697D01*
G01*
X101749999Y-94802157D02*
G75*
G02*
X101799485Y-94585281I499991J-3D01*
G01*
X101799484Y-96424720D02*
G75*
G02*
X101096710Y-97073300I-450514J-216880D01*
G01*
X101799484Y-96424720D02*
G75*
G02*
X101749981Y-96207842I450516J216920D01*
G01*
%TD*%
M02*
