%TF.GenerationSoftware,KiCad,Pcbnew,9.0.7*%
%TF.CreationDate,2026-01-25T00:35:13+11:00*%
%TF.ProjectId,HackPad!,4861636b-5061-4642-912e-6b696361645f,rev?*%
%TF.SameCoordinates,Original*%
%TF.FileFunction,Legend,Top*%
%TF.FilePolarity,Positive*%
%FSLAX46Y46*%
G04 Gerber Fmt 4.6, Leading zero omitted, Abs format (unit mm)*
G04 Created by KiCad (PCBNEW 9.0.7) date 2026-01-25 00:35:13*
%MOMM*%
%LPD*%
G01*
G04 APERTURE LIST*
G04 Aperture macros list*
%AMRoundRect*
0 Rectangle with rounded corners*
0 $1 Rounding radius*
0 $2 $3 $4 $5 $6 $7 $8 $9 X,Y pos of 4 corners*
0 Add a 4 corners polygon primitive as box body*
4,1,4,$2,$3,$4,$5,$6,$7,$8,$9,$2,$3,0*
0 Add four circle primitives for the rounded corners*
1,1,$1+$1,$2,$3*
1,1,$1+$1,$4,$5*
1,1,$1+$1,$6,$7*
1,1,$1+$1,$8,$9*
0 Add four rect primitives between the rounded corners*
20,1,$1+$1,$2,$3,$4,$5,0*
20,1,$1+$1,$4,$5,$6,$7,0*
20,1,$1+$1,$6,$7,$8,$9,0*
20,1,$1+$1,$8,$9,$2,$3,0*%
G04 Aperture macros list end*
%ADD10C,0.100000*%
%ADD11C,0.150000*%
%ADD12C,0.101600*%
%ADD13C,0.120000*%
%ADD14C,0.127000*%
%ADD15C,0.504000*%
%ADD16R,2.000000X2.000000*%
%ADD17C,2.000000*%
%ADD18R,3.200000X2.000000*%
%ADD19C,1.700000*%
%ADD20C,4.000000*%
%ADD21C,2.200000*%
%ADD22RoundRect,0.152400X1.063600X0.609600X-1.063600X0.609600X-1.063600X-0.609600X1.063600X-0.609600X0*%
%ADD23C,1.524000*%
%ADD24RoundRect,0.152400X-1.063600X-0.609600X1.063600X-0.609600X1.063600X0.609600X-1.063600X0.609600X0*%
G04 APERTURE END LIST*
D10*
X139756265Y-81679912D02*
X139899122Y-81727531D01*
X139899122Y-81727531D02*
X140137217Y-81727531D01*
X140137217Y-81727531D02*
X140232455Y-81679912D01*
X140232455Y-81679912D02*
X140280074Y-81632292D01*
X140280074Y-81632292D02*
X140327693Y-81537054D01*
X140327693Y-81537054D02*
X140327693Y-81441816D01*
X140327693Y-81441816D02*
X140280074Y-81346578D01*
X140280074Y-81346578D02*
X140232455Y-81298959D01*
X140232455Y-81298959D02*
X140137217Y-81251340D01*
X140137217Y-81251340D02*
X139946741Y-81203721D01*
X139946741Y-81203721D02*
X139851503Y-81156102D01*
X139851503Y-81156102D02*
X139803884Y-81108483D01*
X139803884Y-81108483D02*
X139756265Y-81013245D01*
X139756265Y-81013245D02*
X139756265Y-80918007D01*
X139756265Y-80918007D02*
X139803884Y-80822769D01*
X139803884Y-80822769D02*
X139851503Y-80775150D01*
X139851503Y-80775150D02*
X139946741Y-80727531D01*
X139946741Y-80727531D02*
X140184836Y-80727531D01*
X140184836Y-80727531D02*
X140327693Y-80775150D01*
X140756265Y-81060864D02*
X140756265Y-82060864D01*
X140756265Y-81108483D02*
X140851503Y-81060864D01*
X140851503Y-81060864D02*
X141041979Y-81060864D01*
X141041979Y-81060864D02*
X141137217Y-81108483D01*
X141137217Y-81108483D02*
X141184836Y-81156102D01*
X141184836Y-81156102D02*
X141232455Y-81251340D01*
X141232455Y-81251340D02*
X141232455Y-81537054D01*
X141232455Y-81537054D02*
X141184836Y-81632292D01*
X141184836Y-81632292D02*
X141137217Y-81679912D01*
X141137217Y-81679912D02*
X141041979Y-81727531D01*
X141041979Y-81727531D02*
X140851503Y-81727531D01*
X140851503Y-81727531D02*
X140756265Y-81679912D01*
X142041979Y-81679912D02*
X141946741Y-81727531D01*
X141946741Y-81727531D02*
X141756265Y-81727531D01*
X141756265Y-81727531D02*
X141661027Y-81679912D01*
X141661027Y-81679912D02*
X141613408Y-81584673D01*
X141613408Y-81584673D02*
X141613408Y-81203721D01*
X141613408Y-81203721D02*
X141661027Y-81108483D01*
X141661027Y-81108483D02*
X141756265Y-81060864D01*
X141756265Y-81060864D02*
X141946741Y-81060864D01*
X141946741Y-81060864D02*
X142041979Y-81108483D01*
X142041979Y-81108483D02*
X142089598Y-81203721D01*
X142089598Y-81203721D02*
X142089598Y-81298959D01*
X142089598Y-81298959D02*
X141613408Y-81394197D01*
X142899122Y-81679912D02*
X142803884Y-81727531D01*
X142803884Y-81727531D02*
X142613408Y-81727531D01*
X142613408Y-81727531D02*
X142518170Y-81679912D01*
X142518170Y-81679912D02*
X142470551Y-81584673D01*
X142470551Y-81584673D02*
X142470551Y-81203721D01*
X142470551Y-81203721D02*
X142518170Y-81108483D01*
X142518170Y-81108483D02*
X142613408Y-81060864D01*
X142613408Y-81060864D02*
X142803884Y-81060864D01*
X142803884Y-81060864D02*
X142899122Y-81108483D01*
X142899122Y-81108483D02*
X142946741Y-81203721D01*
X142946741Y-81203721D02*
X142946741Y-81298959D01*
X142946741Y-81298959D02*
X142470551Y-81394197D01*
X143803884Y-81727531D02*
X143803884Y-80727531D01*
X143803884Y-81679912D02*
X143708646Y-81727531D01*
X143708646Y-81727531D02*
X143518170Y-81727531D01*
X143518170Y-81727531D02*
X143422932Y-81679912D01*
X143422932Y-81679912D02*
X143375313Y-81632292D01*
X143375313Y-81632292D02*
X143327694Y-81537054D01*
X143327694Y-81537054D02*
X143327694Y-81251340D01*
X143327694Y-81251340D02*
X143375313Y-81156102D01*
X143375313Y-81156102D02*
X143422932Y-81108483D01*
X143422932Y-81108483D02*
X143518170Y-81060864D01*
X143518170Y-81060864D02*
X143708646Y-81060864D01*
X143708646Y-81060864D02*
X143803884Y-81108483D01*
X144280075Y-81727531D02*
X144280075Y-81060864D01*
X144280075Y-81251340D02*
X144327694Y-81156102D01*
X144327694Y-81156102D02*
X144375313Y-81108483D01*
X144375313Y-81108483D02*
X144470551Y-81060864D01*
X144470551Y-81060864D02*
X144565789Y-81060864D01*
X145327694Y-81060864D02*
X145327694Y-81727531D01*
X144899123Y-81060864D02*
X144899123Y-81584673D01*
X144899123Y-81584673D02*
X144946742Y-81679912D01*
X144946742Y-81679912D02*
X145041980Y-81727531D01*
X145041980Y-81727531D02*
X145184837Y-81727531D01*
X145184837Y-81727531D02*
X145280075Y-81679912D01*
X145280075Y-81679912D02*
X145327694Y-81632292D01*
X145803885Y-81060864D02*
X145803885Y-81727531D01*
X145803885Y-81156102D02*
X145851504Y-81108483D01*
X145851504Y-81108483D02*
X145946742Y-81060864D01*
X145946742Y-81060864D02*
X146089599Y-81060864D01*
X146089599Y-81060864D02*
X146184837Y-81108483D01*
X146184837Y-81108483D02*
X146232456Y-81203721D01*
X146232456Y-81203721D02*
X146232456Y-81727531D01*
X147470552Y-81060864D02*
X147470552Y-82060864D01*
X147470552Y-81108483D02*
X147565790Y-81060864D01*
X147565790Y-81060864D02*
X147756266Y-81060864D01*
X147756266Y-81060864D02*
X147851504Y-81108483D01*
X147851504Y-81108483D02*
X147899123Y-81156102D01*
X147899123Y-81156102D02*
X147946742Y-81251340D01*
X147946742Y-81251340D02*
X147946742Y-81537054D01*
X147946742Y-81537054D02*
X147899123Y-81632292D01*
X147899123Y-81632292D02*
X147851504Y-81679912D01*
X147851504Y-81679912D02*
X147756266Y-81727531D01*
X147756266Y-81727531D02*
X147565790Y-81727531D01*
X147565790Y-81727531D02*
X147470552Y-81679912D01*
X148803885Y-81727531D02*
X148803885Y-81203721D01*
X148803885Y-81203721D02*
X148756266Y-81108483D01*
X148756266Y-81108483D02*
X148661028Y-81060864D01*
X148661028Y-81060864D02*
X148470552Y-81060864D01*
X148470552Y-81060864D02*
X148375314Y-81108483D01*
X148803885Y-81679912D02*
X148708647Y-81727531D01*
X148708647Y-81727531D02*
X148470552Y-81727531D01*
X148470552Y-81727531D02*
X148375314Y-81679912D01*
X148375314Y-81679912D02*
X148327695Y-81584673D01*
X148327695Y-81584673D02*
X148327695Y-81489435D01*
X148327695Y-81489435D02*
X148375314Y-81394197D01*
X148375314Y-81394197D02*
X148470552Y-81346578D01*
X148470552Y-81346578D02*
X148708647Y-81346578D01*
X148708647Y-81346578D02*
X148803885Y-81298959D01*
X149708647Y-81727531D02*
X149708647Y-80727531D01*
X149708647Y-81679912D02*
X149613409Y-81727531D01*
X149613409Y-81727531D02*
X149422933Y-81727531D01*
X149422933Y-81727531D02*
X149327695Y-81679912D01*
X149327695Y-81679912D02*
X149280076Y-81632292D01*
X149280076Y-81632292D02*
X149232457Y-81537054D01*
X149232457Y-81537054D02*
X149232457Y-81251340D01*
X149232457Y-81251340D02*
X149280076Y-81156102D01*
X149280076Y-81156102D02*
X149327695Y-81108483D01*
X149327695Y-81108483D02*
X149422933Y-81060864D01*
X149422933Y-81060864D02*
X149613409Y-81060864D01*
X149613409Y-81060864D02*
X149708647Y-81108483D01*
X140089598Y-82337475D02*
X140089598Y-83051760D01*
X140089598Y-83051760D02*
X140041979Y-83194617D01*
X140041979Y-83194617D02*
X139946741Y-83289856D01*
X139946741Y-83289856D02*
X139803884Y-83337475D01*
X139803884Y-83337475D02*
X139708646Y-83337475D01*
X140994360Y-83337475D02*
X140994360Y-82813665D01*
X140994360Y-82813665D02*
X140946741Y-82718427D01*
X140946741Y-82718427D02*
X140851503Y-82670808D01*
X140851503Y-82670808D02*
X140661027Y-82670808D01*
X140661027Y-82670808D02*
X140565789Y-82718427D01*
X140994360Y-83289856D02*
X140899122Y-83337475D01*
X140899122Y-83337475D02*
X140661027Y-83337475D01*
X140661027Y-83337475D02*
X140565789Y-83289856D01*
X140565789Y-83289856D02*
X140518170Y-83194617D01*
X140518170Y-83194617D02*
X140518170Y-83099379D01*
X140518170Y-83099379D02*
X140565789Y-83004141D01*
X140565789Y-83004141D02*
X140661027Y-82956522D01*
X140661027Y-82956522D02*
X140899122Y-82956522D01*
X140899122Y-82956522D02*
X140994360Y-82908903D01*
X141470551Y-83337475D02*
X141470551Y-82670808D01*
X141470551Y-82766046D02*
X141518170Y-82718427D01*
X141518170Y-82718427D02*
X141613408Y-82670808D01*
X141613408Y-82670808D02*
X141756265Y-82670808D01*
X141756265Y-82670808D02*
X141851503Y-82718427D01*
X141851503Y-82718427D02*
X141899122Y-82813665D01*
X141899122Y-82813665D02*
X141899122Y-83337475D01*
X141899122Y-82813665D02*
X141946741Y-82718427D01*
X141946741Y-82718427D02*
X142041979Y-82670808D01*
X142041979Y-82670808D02*
X142184836Y-82670808D01*
X142184836Y-82670808D02*
X142280075Y-82718427D01*
X142280075Y-82718427D02*
X142327694Y-82813665D01*
X142327694Y-82813665D02*
X142327694Y-83337475D01*
X143184836Y-83289856D02*
X143089598Y-83337475D01*
X143089598Y-83337475D02*
X142899122Y-83337475D01*
X142899122Y-83337475D02*
X142803884Y-83289856D01*
X142803884Y-83289856D02*
X142756265Y-83194617D01*
X142756265Y-83194617D02*
X142756265Y-82813665D01*
X142756265Y-82813665D02*
X142803884Y-82718427D01*
X142803884Y-82718427D02*
X142899122Y-82670808D01*
X142899122Y-82670808D02*
X143089598Y-82670808D01*
X143089598Y-82670808D02*
X143184836Y-82718427D01*
X143184836Y-82718427D02*
X143232455Y-82813665D01*
X143232455Y-82813665D02*
X143232455Y-82908903D01*
X143232455Y-82908903D02*
X142756265Y-83004141D01*
X143613408Y-83289856D02*
X143708646Y-83337475D01*
X143708646Y-83337475D02*
X143899122Y-83337475D01*
X143899122Y-83337475D02*
X143994360Y-83289856D01*
X143994360Y-83289856D02*
X144041979Y-83194617D01*
X144041979Y-83194617D02*
X144041979Y-83146998D01*
X144041979Y-83146998D02*
X143994360Y-83051760D01*
X143994360Y-83051760D02*
X143899122Y-83004141D01*
X143899122Y-83004141D02*
X143756265Y-83004141D01*
X143756265Y-83004141D02*
X143661027Y-82956522D01*
X143661027Y-82956522D02*
X143613408Y-82861284D01*
X143613408Y-82861284D02*
X143613408Y-82813665D01*
X143613408Y-82813665D02*
X143661027Y-82718427D01*
X143661027Y-82718427D02*
X143756265Y-82670808D01*
X143756265Y-82670808D02*
X143899122Y-82670808D01*
X143899122Y-82670808D02*
X143994360Y-82718427D01*
X144518170Y-83289856D02*
X144518170Y-83337475D01*
X144518170Y-83337475D02*
X144470551Y-83432713D01*
X144470551Y-83432713D02*
X144422932Y-83480332D01*
X145661027Y-82432713D02*
X145708646Y-82385094D01*
X145708646Y-82385094D02*
X145803884Y-82337475D01*
X145803884Y-82337475D02*
X146041979Y-82337475D01*
X146041979Y-82337475D02*
X146137217Y-82385094D01*
X146137217Y-82385094D02*
X146184836Y-82432713D01*
X146184836Y-82432713D02*
X146232455Y-82527951D01*
X146232455Y-82527951D02*
X146232455Y-82623189D01*
X146232455Y-82623189D02*
X146184836Y-82766046D01*
X146184836Y-82766046D02*
X145613408Y-83337475D01*
X145613408Y-83337475D02*
X146232455Y-83337475D01*
X146851503Y-82337475D02*
X146946741Y-82337475D01*
X146946741Y-82337475D02*
X147041979Y-82385094D01*
X147041979Y-82385094D02*
X147089598Y-82432713D01*
X147089598Y-82432713D02*
X147137217Y-82527951D01*
X147137217Y-82527951D02*
X147184836Y-82718427D01*
X147184836Y-82718427D02*
X147184836Y-82956522D01*
X147184836Y-82956522D02*
X147137217Y-83146998D01*
X147137217Y-83146998D02*
X147089598Y-83242236D01*
X147089598Y-83242236D02*
X147041979Y-83289856D01*
X147041979Y-83289856D02*
X146946741Y-83337475D01*
X146946741Y-83337475D02*
X146851503Y-83337475D01*
X146851503Y-83337475D02*
X146756265Y-83289856D01*
X146756265Y-83289856D02*
X146708646Y-83242236D01*
X146708646Y-83242236D02*
X146661027Y-83146998D01*
X146661027Y-83146998D02*
X146613408Y-82956522D01*
X146613408Y-82956522D02*
X146613408Y-82718427D01*
X146613408Y-82718427D02*
X146661027Y-82527951D01*
X146661027Y-82527951D02*
X146708646Y-82432713D01*
X146708646Y-82432713D02*
X146756265Y-82385094D01*
X146756265Y-82385094D02*
X146851503Y-82337475D01*
X147565789Y-82432713D02*
X147613408Y-82385094D01*
X147613408Y-82385094D02*
X147708646Y-82337475D01*
X147708646Y-82337475D02*
X147946741Y-82337475D01*
X147946741Y-82337475D02*
X148041979Y-82385094D01*
X148041979Y-82385094D02*
X148089598Y-82432713D01*
X148089598Y-82432713D02*
X148137217Y-82527951D01*
X148137217Y-82527951D02*
X148137217Y-82623189D01*
X148137217Y-82623189D02*
X148089598Y-82766046D01*
X148089598Y-82766046D02*
X147518170Y-83337475D01*
X147518170Y-83337475D02*
X148137217Y-83337475D01*
X148994360Y-82337475D02*
X148803884Y-82337475D01*
X148803884Y-82337475D02*
X148708646Y-82385094D01*
X148708646Y-82385094D02*
X148661027Y-82432713D01*
X148661027Y-82432713D02*
X148565789Y-82575570D01*
X148565789Y-82575570D02*
X148518170Y-82766046D01*
X148518170Y-82766046D02*
X148518170Y-83146998D01*
X148518170Y-83146998D02*
X148565789Y-83242236D01*
X148565789Y-83242236D02*
X148613408Y-83289856D01*
X148613408Y-83289856D02*
X148708646Y-83337475D01*
X148708646Y-83337475D02*
X148899122Y-83337475D01*
X148899122Y-83337475D02*
X148994360Y-83289856D01*
X148994360Y-83289856D02*
X149041979Y-83242236D01*
X149041979Y-83242236D02*
X149089598Y-83146998D01*
X149089598Y-83146998D02*
X149089598Y-82908903D01*
X149089598Y-82908903D02*
X149041979Y-82813665D01*
X149041979Y-82813665D02*
X148994360Y-82766046D01*
X148994360Y-82766046D02*
X148899122Y-82718427D01*
X148899122Y-82718427D02*
X148708646Y-82718427D01*
X148708646Y-82718427D02*
X148613408Y-82766046D01*
X148613408Y-82766046D02*
X148565789Y-82813665D01*
X148565789Y-82813665D02*
X148518170Y-82908903D01*
X140327693Y-83995038D02*
X140232455Y-83947419D01*
X140232455Y-83947419D02*
X140089598Y-83947419D01*
X140089598Y-83947419D02*
X139946741Y-83995038D01*
X139946741Y-83995038D02*
X139851503Y-84090276D01*
X139851503Y-84090276D02*
X139803884Y-84185514D01*
X139803884Y-84185514D02*
X139756265Y-84375990D01*
X139756265Y-84375990D02*
X139756265Y-84518847D01*
X139756265Y-84518847D02*
X139803884Y-84709323D01*
X139803884Y-84709323D02*
X139851503Y-84804561D01*
X139851503Y-84804561D02*
X139946741Y-84899800D01*
X139946741Y-84899800D02*
X140089598Y-84947419D01*
X140089598Y-84947419D02*
X140184836Y-84947419D01*
X140184836Y-84947419D02*
X140327693Y-84899800D01*
X140327693Y-84899800D02*
X140375312Y-84852180D01*
X140375312Y-84852180D02*
X140375312Y-84518847D01*
X140375312Y-84518847D02*
X140184836Y-84518847D01*
X140946741Y-84947419D02*
X140851503Y-84899800D01*
X140851503Y-84899800D02*
X140803884Y-84852180D01*
X140803884Y-84852180D02*
X140756265Y-84756942D01*
X140756265Y-84756942D02*
X140756265Y-84471228D01*
X140756265Y-84471228D02*
X140803884Y-84375990D01*
X140803884Y-84375990D02*
X140851503Y-84328371D01*
X140851503Y-84328371D02*
X140946741Y-84280752D01*
X140946741Y-84280752D02*
X141089598Y-84280752D01*
X141089598Y-84280752D02*
X141184836Y-84328371D01*
X141184836Y-84328371D02*
X141232455Y-84375990D01*
X141232455Y-84375990D02*
X141280074Y-84471228D01*
X141280074Y-84471228D02*
X141280074Y-84756942D01*
X141280074Y-84756942D02*
X141232455Y-84852180D01*
X141232455Y-84852180D02*
X141184836Y-84899800D01*
X141184836Y-84899800D02*
X141089598Y-84947419D01*
X141089598Y-84947419D02*
X140946741Y-84947419D01*
X141851503Y-84947419D02*
X141756265Y-84899800D01*
X141756265Y-84899800D02*
X141708646Y-84852180D01*
X141708646Y-84852180D02*
X141661027Y-84756942D01*
X141661027Y-84756942D02*
X141661027Y-84471228D01*
X141661027Y-84471228D02*
X141708646Y-84375990D01*
X141708646Y-84375990D02*
X141756265Y-84328371D01*
X141756265Y-84328371D02*
X141851503Y-84280752D01*
X141851503Y-84280752D02*
X141994360Y-84280752D01*
X141994360Y-84280752D02*
X142089598Y-84328371D01*
X142089598Y-84328371D02*
X142137217Y-84375990D01*
X142137217Y-84375990D02*
X142184836Y-84471228D01*
X142184836Y-84471228D02*
X142184836Y-84756942D01*
X142184836Y-84756942D02*
X142137217Y-84852180D01*
X142137217Y-84852180D02*
X142089598Y-84899800D01*
X142089598Y-84899800D02*
X141994360Y-84947419D01*
X141994360Y-84947419D02*
X141851503Y-84947419D01*
X143041979Y-84947419D02*
X143041979Y-83947419D01*
X143041979Y-84899800D02*
X142946741Y-84947419D01*
X142946741Y-84947419D02*
X142756265Y-84947419D01*
X142756265Y-84947419D02*
X142661027Y-84899800D01*
X142661027Y-84899800D02*
X142613408Y-84852180D01*
X142613408Y-84852180D02*
X142565789Y-84756942D01*
X142565789Y-84756942D02*
X142565789Y-84471228D01*
X142565789Y-84471228D02*
X142613408Y-84375990D01*
X142613408Y-84375990D02*
X142661027Y-84328371D01*
X142661027Y-84328371D02*
X142756265Y-84280752D01*
X142756265Y-84280752D02*
X142946741Y-84280752D01*
X142946741Y-84280752D02*
X143041979Y-84328371D01*
X144756265Y-84947419D02*
X144280075Y-84947419D01*
X144280075Y-84947419D02*
X144280075Y-83947419D01*
X145518170Y-84280752D02*
X145518170Y-84947419D01*
X145089599Y-84280752D02*
X145089599Y-84804561D01*
X145089599Y-84804561D02*
X145137218Y-84899800D01*
X145137218Y-84899800D02*
X145232456Y-84947419D01*
X145232456Y-84947419D02*
X145375313Y-84947419D01*
X145375313Y-84947419D02*
X145470551Y-84899800D01*
X145470551Y-84899800D02*
X145518170Y-84852180D01*
X146422932Y-84899800D02*
X146327694Y-84947419D01*
X146327694Y-84947419D02*
X146137218Y-84947419D01*
X146137218Y-84947419D02*
X146041980Y-84899800D01*
X146041980Y-84899800D02*
X145994361Y-84852180D01*
X145994361Y-84852180D02*
X145946742Y-84756942D01*
X145946742Y-84756942D02*
X145946742Y-84471228D01*
X145946742Y-84471228D02*
X145994361Y-84375990D01*
X145994361Y-84375990D02*
X146041980Y-84328371D01*
X146041980Y-84328371D02*
X146137218Y-84280752D01*
X146137218Y-84280752D02*
X146327694Y-84280752D01*
X146327694Y-84280752D02*
X146422932Y-84328371D01*
X146851504Y-84947419D02*
X146851504Y-83947419D01*
X146946742Y-84566466D02*
X147232456Y-84947419D01*
X147232456Y-84280752D02*
X146851504Y-84661704D01*
X147661028Y-84852180D02*
X147708647Y-84899800D01*
X147708647Y-84899800D02*
X147661028Y-84947419D01*
X147661028Y-84947419D02*
X147613409Y-84899800D01*
X147613409Y-84899800D02*
X147661028Y-84852180D01*
X147661028Y-84852180D02*
X147661028Y-84947419D01*
X147661028Y-84566466D02*
X147613409Y-83995038D01*
X147613409Y-83995038D02*
X147661028Y-83947419D01*
X147661028Y-83947419D02*
X147708647Y-83995038D01*
X147708647Y-83995038D02*
X147661028Y-84566466D01*
X147661028Y-84566466D02*
X147661028Y-83947419D01*
G36*
X136060205Y-67030000D02*
G01*
X136382178Y-66510617D01*
X136088171Y-66030375D01*
X136177808Y-66030375D01*
X136421379Y-66446198D01*
X136670629Y-66030375D01*
X136757397Y-66030375D01*
X136461985Y-66510617D01*
X136781210Y-67030000D01*
X136694382Y-67030000D01*
X136422784Y-66576379D01*
X136148377Y-67030000D01*
X136060205Y-67030000D01*
G37*
G36*
X137028201Y-67030000D02*
G01*
X137028201Y-66972602D01*
X137218588Y-66961428D01*
X137218588Y-66099007D01*
X137028201Y-66087772D01*
X137028201Y-66030375D01*
X137490247Y-66030375D01*
X137490247Y-66087772D01*
X137299799Y-66099007D01*
X137299799Y-66961428D01*
X137490247Y-66972602D01*
X137490247Y-67030000D01*
X137028201Y-67030000D01*
G37*
G36*
X138490422Y-67030000D02*
G01*
X138406463Y-67030000D01*
X138288860Y-66687021D01*
X137908025Y-66687021D01*
X137790422Y-67030000D01*
X137706463Y-67030000D01*
X137851943Y-66612772D01*
X137933243Y-66612772D01*
X138263642Y-66612772D01*
X138143230Y-66257215D01*
X138120821Y-66193529D01*
X138098412Y-66117203D01*
X138076003Y-66193529D01*
X138055059Y-66257215D01*
X137933243Y-66612772D01*
X137851943Y-66612772D01*
X138056463Y-66026222D01*
X138140422Y-66026222D01*
X138490422Y-67030000D01*
G37*
G36*
X138999529Y-66019304D02*
G01*
X139051126Y-66031644D01*
X139096445Y-66051463D01*
X139136444Y-66078735D01*
X139182076Y-66125358D01*
X139220154Y-66184357D01*
X139250505Y-66257948D01*
X139270490Y-66335780D01*
X139283165Y-66424633D01*
X139287630Y-66526004D01*
X139283297Y-66625462D01*
X139270912Y-66713956D01*
X139251238Y-66792718D01*
X139221359Y-66867321D01*
X139183506Y-66928007D01*
X139137848Y-66976816D01*
X139097689Y-67005498D01*
X139051701Y-67026372D01*
X138998808Y-67039406D01*
X138937630Y-67043982D01*
X138876545Y-67039374D01*
X138823552Y-67026228D01*
X138777301Y-67005131D01*
X138736741Y-66976083D01*
X138690669Y-66926824D01*
X138652834Y-66866102D01*
X138623351Y-66791985D01*
X138604035Y-66713737D01*
X138591881Y-66625943D01*
X138587691Y-66528813D01*
X138670245Y-66528813D01*
X138674976Y-66632649D01*
X138688114Y-66719314D01*
X138708329Y-66791292D01*
X138734665Y-66850786D01*
X138763982Y-66894191D01*
X138798425Y-66926888D01*
X138838484Y-66950240D01*
X138885277Y-66964707D01*
X138940439Y-66969794D01*
X138994474Y-66964776D01*
X139040314Y-66950503D01*
X139079567Y-66927448D01*
X139113326Y-66895135D01*
X139142062Y-66852191D01*
X139167681Y-66793525D01*
X139187468Y-66721723D01*
X139200400Y-66634385D01*
X139205076Y-66528813D01*
X139200241Y-66420838D01*
X139186940Y-66332567D01*
X139166707Y-66260954D01*
X139140657Y-66203299D01*
X139111469Y-66161047D01*
X139077581Y-66129272D01*
X139038542Y-66106639D01*
X138993328Y-66092668D01*
X138940439Y-66087772D01*
X138885932Y-66092853D01*
X138839487Y-66107338D01*
X138799520Y-66130784D01*
X138764957Y-66163705D01*
X138735336Y-66207512D01*
X138708656Y-66267403D01*
X138688236Y-66339463D01*
X138675001Y-66425806D01*
X138670245Y-66528813D01*
X138587691Y-66528813D01*
X138587630Y-66527409D01*
X138592367Y-66424204D01*
X138605768Y-66334479D01*
X138626831Y-66256543D01*
X138658563Y-66183048D01*
X138697809Y-66124270D01*
X138744434Y-66078002D01*
X138785093Y-66050967D01*
X138830688Y-66031375D01*
X138882101Y-66019222D01*
X138940439Y-66014987D01*
X138999529Y-66019304D01*
G37*
G36*
X140312290Y-67030000D02*
G01*
X140312290Y-66030375D01*
X140393501Y-66030375D01*
X140393501Y-66468607D01*
X140840099Y-66468607D01*
X140840099Y-66030375D01*
X140921310Y-66030375D01*
X140921310Y-67030000D01*
X140840099Y-67030000D01*
X140840099Y-66542796D01*
X140393501Y-66542796D01*
X140393501Y-67030000D01*
X140312290Y-67030000D01*
G37*
G36*
X141182283Y-67030000D02*
G01*
X141182283Y-66030375D01*
X141753506Y-66030375D01*
X141753506Y-66103220D01*
X141263494Y-66103220D01*
X141263494Y-66468607D01*
X141725540Y-66468607D01*
X141725540Y-66541392D01*
X141263494Y-66541392D01*
X141263494Y-66955811D01*
X141753506Y-66955811D01*
X141753506Y-67030000D01*
X141182283Y-67030000D01*
G37*
G36*
X142338347Y-66035107D02*
G01*
X142409449Y-66048149D01*
X142467106Y-66068109D01*
X142513590Y-66094122D01*
X142552255Y-66129479D01*
X142580567Y-66174912D01*
X142598708Y-66232700D01*
X142605303Y-66306186D01*
X142601204Y-66366119D01*
X142589829Y-66415224D01*
X142572157Y-66455409D01*
X142548578Y-66488208D01*
X142507615Y-66525473D01*
X142457948Y-66555345D01*
X142398124Y-66577784D01*
X142668318Y-67030000D01*
X142577337Y-67030000D01*
X142323935Y-66601598D01*
X142102712Y-66601598D01*
X142102712Y-67030000D01*
X142021502Y-67030000D01*
X142021502Y-66528813D01*
X142102712Y-66528813D01*
X142270751Y-66528813D01*
X142348465Y-66522124D01*
X142408804Y-66503860D01*
X142455521Y-66475629D01*
X142483256Y-66446781D01*
X142503633Y-66410773D01*
X142516647Y-66366039D01*
X142521345Y-66310399D01*
X142516179Y-66252701D01*
X142502085Y-66208188D01*
X142480270Y-66173957D01*
X142450636Y-66148039D01*
X142401171Y-66124044D01*
X142334002Y-66107886D01*
X142244129Y-66101816D01*
X142102712Y-66101816D01*
X142102712Y-66528813D01*
X142021502Y-66528813D01*
X142021502Y-66030375D01*
X142251151Y-66030375D01*
X142338347Y-66035107D01*
G37*
G36*
X142860720Y-67030000D02*
G01*
X142860720Y-66030375D01*
X143431943Y-66030375D01*
X143431943Y-66103220D01*
X142941931Y-66103220D01*
X142941931Y-66468607D01*
X143403977Y-66468607D01*
X143403977Y-66541392D01*
X142941931Y-66541392D01*
X142941931Y-66955811D01*
X143431943Y-66955811D01*
X143431943Y-67030000D01*
X142860720Y-67030000D01*
G37*
G36*
X143937953Y-66766828D02*
G01*
X143925375Y-66030375D01*
X144021973Y-66030375D01*
X144009394Y-66766828D01*
X143937953Y-66766828D01*
G37*
G36*
X143972941Y-67045387D02*
G01*
X143945133Y-67040735D01*
X143926484Y-67028047D01*
X143914580Y-67006610D01*
X143909987Y-66972602D01*
X143914541Y-66939372D01*
X143926381Y-66918339D01*
X143945024Y-66905827D01*
X143972941Y-66901222D01*
X144001640Y-66905877D01*
X144020708Y-66918472D01*
X144032748Y-66939514D01*
X144037360Y-66972602D01*
X144032708Y-67006465D01*
X144020603Y-67027912D01*
X144001528Y-67040684D01*
X143972941Y-67045387D01*
G37*
D11*
X133816667Y-86007200D02*
X133959524Y-86054819D01*
X133959524Y-86054819D02*
X134197619Y-86054819D01*
X134197619Y-86054819D02*
X134292857Y-86007200D01*
X134292857Y-86007200D02*
X134340476Y-85959580D01*
X134340476Y-85959580D02*
X134388095Y-85864342D01*
X134388095Y-85864342D02*
X134388095Y-85769104D01*
X134388095Y-85769104D02*
X134340476Y-85673866D01*
X134340476Y-85673866D02*
X134292857Y-85626247D01*
X134292857Y-85626247D02*
X134197619Y-85578628D01*
X134197619Y-85578628D02*
X134007143Y-85531009D01*
X134007143Y-85531009D02*
X133911905Y-85483390D01*
X133911905Y-85483390D02*
X133864286Y-85435771D01*
X133864286Y-85435771D02*
X133816667Y-85340533D01*
X133816667Y-85340533D02*
X133816667Y-85245295D01*
X133816667Y-85245295D02*
X133864286Y-85150057D01*
X133864286Y-85150057D02*
X133911905Y-85102438D01*
X133911905Y-85102438D02*
X134007143Y-85054819D01*
X134007143Y-85054819D02*
X134245238Y-85054819D01*
X134245238Y-85054819D02*
X134388095Y-85102438D01*
X134721429Y-85054819D02*
X134959524Y-86054819D01*
X134959524Y-86054819D02*
X135150000Y-85340533D01*
X135150000Y-85340533D02*
X135340476Y-86054819D01*
X135340476Y-86054819D02*
X135578572Y-85054819D01*
X136435714Y-85054819D02*
X135959524Y-85054819D01*
X135959524Y-85054819D02*
X135911905Y-85531009D01*
X135911905Y-85531009D02*
X135959524Y-85483390D01*
X135959524Y-85483390D02*
X136054762Y-85435771D01*
X136054762Y-85435771D02*
X136292857Y-85435771D01*
X136292857Y-85435771D02*
X136388095Y-85483390D01*
X136388095Y-85483390D02*
X136435714Y-85531009D01*
X136435714Y-85531009D02*
X136483333Y-85626247D01*
X136483333Y-85626247D02*
X136483333Y-85864342D01*
X136483333Y-85864342D02*
X136435714Y-85959580D01*
X136435714Y-85959580D02*
X136388095Y-86007200D01*
X136388095Y-86007200D02*
X136292857Y-86054819D01*
X136292857Y-86054819D02*
X136054762Y-86054819D01*
X136054762Y-86054819D02*
X135959524Y-86007200D01*
X135959524Y-86007200D02*
X135911905Y-85959580D01*
X117729167Y-63970700D02*
X117872024Y-64018319D01*
X117872024Y-64018319D02*
X118110119Y-64018319D01*
X118110119Y-64018319D02*
X118205357Y-63970700D01*
X118205357Y-63970700D02*
X118252976Y-63923080D01*
X118252976Y-63923080D02*
X118300595Y-63827842D01*
X118300595Y-63827842D02*
X118300595Y-63732604D01*
X118300595Y-63732604D02*
X118252976Y-63637366D01*
X118252976Y-63637366D02*
X118205357Y-63589747D01*
X118205357Y-63589747D02*
X118110119Y-63542128D01*
X118110119Y-63542128D02*
X117919643Y-63494509D01*
X117919643Y-63494509D02*
X117824405Y-63446890D01*
X117824405Y-63446890D02*
X117776786Y-63399271D01*
X117776786Y-63399271D02*
X117729167Y-63304033D01*
X117729167Y-63304033D02*
X117729167Y-63208795D01*
X117729167Y-63208795D02*
X117776786Y-63113557D01*
X117776786Y-63113557D02*
X117824405Y-63065938D01*
X117824405Y-63065938D02*
X117919643Y-63018319D01*
X117919643Y-63018319D02*
X118157738Y-63018319D01*
X118157738Y-63018319D02*
X118300595Y-63065938D01*
X118633929Y-63018319D02*
X118872024Y-64018319D01*
X118872024Y-64018319D02*
X119062500Y-63304033D01*
X119062500Y-63304033D02*
X119252976Y-64018319D01*
X119252976Y-64018319D02*
X119491072Y-63018319D01*
X119776786Y-63018319D02*
X120395833Y-63018319D01*
X120395833Y-63018319D02*
X120062500Y-63399271D01*
X120062500Y-63399271D02*
X120205357Y-63399271D01*
X120205357Y-63399271D02*
X120300595Y-63446890D01*
X120300595Y-63446890D02*
X120348214Y-63494509D01*
X120348214Y-63494509D02*
X120395833Y-63589747D01*
X120395833Y-63589747D02*
X120395833Y-63827842D01*
X120395833Y-63827842D02*
X120348214Y-63923080D01*
X120348214Y-63923080D02*
X120300595Y-63970700D01*
X120300595Y-63970700D02*
X120205357Y-64018319D01*
X120205357Y-64018319D02*
X119919643Y-64018319D01*
X119919643Y-64018319D02*
X119824405Y-63970700D01*
X119824405Y-63970700D02*
X119776786Y-63923080D01*
D12*
X130736190Y-57373479D02*
X130736190Y-57887526D01*
X130736190Y-57887526D02*
X130766428Y-57948002D01*
X130766428Y-57948002D02*
X130796666Y-57978241D01*
X130796666Y-57978241D02*
X130857142Y-58008479D01*
X130857142Y-58008479D02*
X130978095Y-58008479D01*
X130978095Y-58008479D02*
X131038571Y-57978241D01*
X131038571Y-57978241D02*
X131068809Y-57948002D01*
X131068809Y-57948002D02*
X131099047Y-57887526D01*
X131099047Y-57887526D02*
X131099047Y-57373479D01*
X131734047Y-58008479D02*
X131371190Y-58008479D01*
X131552618Y-58008479D02*
X131552618Y-57373479D01*
X131552618Y-57373479D02*
X131492142Y-57464193D01*
X131492142Y-57464193D02*
X131431666Y-57524669D01*
X131431666Y-57524669D02*
X131371190Y-57554907D01*
D11*
X117729167Y-83020700D02*
X117872024Y-83068319D01*
X117872024Y-83068319D02*
X118110119Y-83068319D01*
X118110119Y-83068319D02*
X118205357Y-83020700D01*
X118205357Y-83020700D02*
X118252976Y-82973080D01*
X118252976Y-82973080D02*
X118300595Y-82877842D01*
X118300595Y-82877842D02*
X118300595Y-82782604D01*
X118300595Y-82782604D02*
X118252976Y-82687366D01*
X118252976Y-82687366D02*
X118205357Y-82639747D01*
X118205357Y-82639747D02*
X118110119Y-82592128D01*
X118110119Y-82592128D02*
X117919643Y-82544509D01*
X117919643Y-82544509D02*
X117824405Y-82496890D01*
X117824405Y-82496890D02*
X117776786Y-82449271D01*
X117776786Y-82449271D02*
X117729167Y-82354033D01*
X117729167Y-82354033D02*
X117729167Y-82258795D01*
X117729167Y-82258795D02*
X117776786Y-82163557D01*
X117776786Y-82163557D02*
X117824405Y-82115938D01*
X117824405Y-82115938D02*
X117919643Y-82068319D01*
X117919643Y-82068319D02*
X118157738Y-82068319D01*
X118157738Y-82068319D02*
X118300595Y-82115938D01*
X118633929Y-82068319D02*
X118872024Y-83068319D01*
X118872024Y-83068319D02*
X119062500Y-82354033D01*
X119062500Y-82354033D02*
X119252976Y-83068319D01*
X119252976Y-83068319D02*
X119491072Y-82068319D01*
X120300595Y-82401652D02*
X120300595Y-83068319D01*
X120062500Y-82020700D02*
X119824405Y-82734985D01*
X119824405Y-82734985D02*
X120443452Y-82734985D01*
X98679167Y-63970700D02*
X98822024Y-64018319D01*
X98822024Y-64018319D02*
X99060119Y-64018319D01*
X99060119Y-64018319D02*
X99155357Y-63970700D01*
X99155357Y-63970700D02*
X99202976Y-63923080D01*
X99202976Y-63923080D02*
X99250595Y-63827842D01*
X99250595Y-63827842D02*
X99250595Y-63732604D01*
X99250595Y-63732604D02*
X99202976Y-63637366D01*
X99202976Y-63637366D02*
X99155357Y-63589747D01*
X99155357Y-63589747D02*
X99060119Y-63542128D01*
X99060119Y-63542128D02*
X98869643Y-63494509D01*
X98869643Y-63494509D02*
X98774405Y-63446890D01*
X98774405Y-63446890D02*
X98726786Y-63399271D01*
X98726786Y-63399271D02*
X98679167Y-63304033D01*
X98679167Y-63304033D02*
X98679167Y-63208795D01*
X98679167Y-63208795D02*
X98726786Y-63113557D01*
X98726786Y-63113557D02*
X98774405Y-63065938D01*
X98774405Y-63065938D02*
X98869643Y-63018319D01*
X98869643Y-63018319D02*
X99107738Y-63018319D01*
X99107738Y-63018319D02*
X99250595Y-63065938D01*
X99583929Y-63018319D02*
X99822024Y-64018319D01*
X99822024Y-64018319D02*
X100012500Y-63304033D01*
X100012500Y-63304033D02*
X100202976Y-64018319D01*
X100202976Y-64018319D02*
X100441072Y-63018319D01*
X101345833Y-64018319D02*
X100774405Y-64018319D01*
X101060119Y-64018319D02*
X101060119Y-63018319D01*
X101060119Y-63018319D02*
X100964881Y-63161176D01*
X100964881Y-63161176D02*
X100869643Y-63256414D01*
X100869643Y-63256414D02*
X100774405Y-63304033D01*
X98679167Y-83020700D02*
X98822024Y-83068319D01*
X98822024Y-83068319D02*
X99060119Y-83068319D01*
X99060119Y-83068319D02*
X99155357Y-83020700D01*
X99155357Y-83020700D02*
X99202976Y-82973080D01*
X99202976Y-82973080D02*
X99250595Y-82877842D01*
X99250595Y-82877842D02*
X99250595Y-82782604D01*
X99250595Y-82782604D02*
X99202976Y-82687366D01*
X99202976Y-82687366D02*
X99155357Y-82639747D01*
X99155357Y-82639747D02*
X99060119Y-82592128D01*
X99060119Y-82592128D02*
X98869643Y-82544509D01*
X98869643Y-82544509D02*
X98774405Y-82496890D01*
X98774405Y-82496890D02*
X98726786Y-82449271D01*
X98726786Y-82449271D02*
X98679167Y-82354033D01*
X98679167Y-82354033D02*
X98679167Y-82258795D01*
X98679167Y-82258795D02*
X98726786Y-82163557D01*
X98726786Y-82163557D02*
X98774405Y-82115938D01*
X98774405Y-82115938D02*
X98869643Y-82068319D01*
X98869643Y-82068319D02*
X99107738Y-82068319D01*
X99107738Y-82068319D02*
X99250595Y-82115938D01*
X99583929Y-82068319D02*
X99822024Y-83068319D01*
X99822024Y-83068319D02*
X100012500Y-82354033D01*
X100012500Y-82354033D02*
X100202976Y-83068319D01*
X100202976Y-83068319D02*
X100441072Y-82068319D01*
X100774405Y-82163557D02*
X100822024Y-82115938D01*
X100822024Y-82115938D02*
X100917262Y-82068319D01*
X100917262Y-82068319D02*
X101155357Y-82068319D01*
X101155357Y-82068319D02*
X101250595Y-82115938D01*
X101250595Y-82115938D02*
X101298214Y-82163557D01*
X101298214Y-82163557D02*
X101345833Y-82258795D01*
X101345833Y-82258795D02*
X101345833Y-82354033D01*
X101345833Y-82354033D02*
X101298214Y-82496890D01*
X101298214Y-82496890D02*
X100726786Y-83068319D01*
X100726786Y-83068319D02*
X101345833Y-83068319D01*
D13*
%TO.C,SW5*%
X132050000Y-88700000D02*
X132650000Y-88700000D01*
X132350000Y-89000000D02*
X132050000Y-88700000D01*
X132650000Y-88700000D02*
X132350000Y-89000000D01*
X133750000Y-86900000D02*
X133750000Y-98700000D01*
X137850000Y-86900000D02*
X133750000Y-86900000D01*
X137850000Y-98700000D02*
X133750000Y-98700000D01*
X139350000Y-92800000D02*
X140350000Y-92800000D01*
X139850000Y-92300000D02*
X139850000Y-93300000D01*
X141850000Y-86900000D02*
X145950000Y-86900000D01*
X145950000Y-86900000D02*
X145950000Y-89300000D01*
X145950000Y-91500000D02*
X145950000Y-94100000D01*
X145950000Y-96300000D02*
X145950000Y-98700000D01*
X145950000Y-98700000D02*
X141850000Y-98700000D01*
X142850000Y-92800000D02*
G75*
G02*
X136850000Y-92800000I-3000000J0D01*
G01*
X136850000Y-92800000D02*
G75*
G02*
X142850000Y-92800000I3000000J0D01*
G01*
%TO.C,SW3*%
X112077500Y-64452500D02*
X126047500Y-64452500D01*
X112077500Y-78422500D02*
X112077500Y-64452500D01*
X126047500Y-64452500D02*
X126047500Y-78422500D01*
X126047500Y-78422500D02*
X112077500Y-78422500D01*
D14*
%TO.C,U1*%
X130830000Y-78229000D02*
X130830000Y-61084000D01*
X132735000Y-80134000D02*
X146705000Y-80134000D01*
X135225000Y-59179000D02*
X135228728Y-58268728D01*
X135728728Y-57769000D02*
X143724000Y-57769000D01*
X144224000Y-58269000D02*
X144224000Y-59179000D01*
D10*
X146705000Y-59179000D02*
X132735000Y-59179000D01*
D14*
X146705000Y-59179000D02*
X132735000Y-59179000D01*
X148610000Y-78229000D02*
X148610000Y-61084000D01*
X130830000Y-61084000D02*
G75*
G02*
X132735000Y-59179000I1905001J-1D01*
G01*
X132735000Y-80134000D02*
G75*
G02*
X130830000Y-78229000I1J1905001D01*
G01*
X135228728Y-58268728D02*
G75*
G02*
X135728728Y-57769001I500018J-291D01*
G01*
X143724000Y-57769000D02*
G75*
G02*
X144224000Y-58269000I0J-500000D01*
G01*
X146705000Y-59179000D02*
G75*
G02*
X148610000Y-61084000I0J-1905000D01*
G01*
X148610000Y-78229000D02*
G75*
G02*
X146705000Y-80134000I-1905000J0D01*
G01*
D15*
X131022000Y-59420000D02*
G75*
G02*
X130518000Y-59420000I-252000J0D01*
G01*
X130518000Y-59420000D02*
G75*
G02*
X131022000Y-59420000I252000J0D01*
G01*
X132165000Y-60300000D02*
G75*
G02*
X131661000Y-60300000I-252000J0D01*
G01*
X131661000Y-60300000D02*
G75*
G02*
X132165000Y-60300000I252000J0D01*
G01*
D13*
%TO.C,SW4*%
X112077500Y-83502500D02*
X126047500Y-83502500D01*
X112077500Y-97472500D02*
X112077500Y-83502500D01*
X126047500Y-83502500D02*
X126047500Y-97472500D01*
X126047500Y-97472500D02*
X112077500Y-97472500D01*
%TO.C,SW1*%
X93027500Y-64452500D02*
X106997500Y-64452500D01*
X93027500Y-78422500D02*
X93027500Y-64452500D01*
X106997500Y-64452500D02*
X106997500Y-78422500D01*
X106997500Y-78422500D02*
X93027500Y-78422500D01*
%TO.C,SW2*%
X93027500Y-83502500D02*
X106997500Y-83502500D01*
X93027500Y-97472500D02*
X93027500Y-83502500D01*
X106997500Y-83502500D02*
X106997500Y-97472500D01*
X106997500Y-97472500D02*
X93027500Y-97472500D01*
%TD*%
%LPC*%
D16*
%TO.C,SW5*%
X132350000Y-90300000D03*
D17*
X132350000Y-95300000D03*
X132350000Y-92800000D03*
D18*
X139850000Y-87200000D03*
X139850000Y-98400000D03*
D17*
X146850000Y-95300000D03*
X146850000Y-90300000D03*
%TD*%
D19*
%TO.C,SW3*%
X113982500Y-71437500D03*
D20*
X119062500Y-71437500D03*
D19*
X124142500Y-71437500D03*
D21*
X121602500Y-66357500D03*
X115252500Y-68897500D03*
%TD*%
D22*
%TO.C,U1*%
X131265000Y-62100000D03*
D23*
X132100000Y-62100000D03*
D22*
X131265000Y-64640000D03*
D23*
X132100000Y-64640000D03*
D22*
X131265000Y-67180000D03*
D23*
X132100000Y-67180000D03*
D22*
X131265000Y-69720000D03*
D23*
X132100000Y-69720000D03*
D22*
X131265000Y-72260000D03*
D23*
X132100000Y-72260000D03*
D22*
X131265000Y-74800000D03*
D23*
X132100000Y-74800000D03*
D22*
X131265000Y-77340000D03*
D23*
X132100000Y-77340000D03*
X147340000Y-77340000D03*
D24*
X148175000Y-77340000D03*
D23*
X147340000Y-74800000D03*
D24*
X148175000Y-74800000D03*
D23*
X147340000Y-72260000D03*
D24*
X148175000Y-72260000D03*
D23*
X147340000Y-69720000D03*
D24*
X148175000Y-69720000D03*
D23*
X147340000Y-67180000D03*
D24*
X148175000Y-67180000D03*
D23*
X147340000Y-64640000D03*
D24*
X148175000Y-64640000D03*
D23*
X147340000Y-62100000D03*
D24*
X148175000Y-62100000D03*
%TD*%
D19*
%TO.C,SW4*%
X113982500Y-90487500D03*
D20*
X119062500Y-90487500D03*
D19*
X124142500Y-90487500D03*
D21*
X121602500Y-85407500D03*
X115252500Y-87947500D03*
%TD*%
D19*
%TO.C,SW1*%
X94932500Y-71437500D03*
D20*
X100012500Y-71437500D03*
D19*
X105092500Y-71437500D03*
D21*
X102552500Y-66357500D03*
X96202500Y-68897500D03*
%TD*%
D19*
%TO.C,SW2*%
X94932500Y-90487500D03*
D20*
X100012500Y-90487500D03*
D19*
X105092500Y-90487500D03*
D21*
X102552500Y-85407500D03*
X96202500Y-87947500D03*
%TD*%
%LPD*%
M02*
